<svg width="20" height="20" viewBox="0 0 20 20" fill="none" xmlns="http://www.w3.org/2000/svg">
<path d="M18.1448 0.867256C16.9881 -0.289085 15.1184 -0.289085 13.9616 0.867256L12.3718 2.45129L17.5427 7.6205L19.1325 6.03119C20.2892 4.87485 20.2892 3.0057 19.1325 1.84935L18.1448 0.867256ZM2.34182 12.4835C2.01963 12.8056 1.77139 13.2016 1.62878 13.6398L0.0653854 18.3285C-0.0877851 18.7826 0.0336952 19.2842 0.371727 19.6274C0.709758 19.9707 1.21152 20.0868 1.67103 19.9337L6.36122 18.3708C6.79432 18.2282 7.19045 17.9801 7.51792 17.658L16.3543 8.81909L11.1782 3.64459L2.34182 12.4835Z" fill="#A8B3C2"/>
</svg>
