<svg width="97" height="78" viewBox="0 0 97 78" fill="none" xmlns="http://www.w3.org/2000/svg">
<g clip-path="url(#clip0_380_31)">
<path d="M8.21473 30.9105C18.6725 20.8254 32.8588 14.625 48.5 14.625C64.1413 14.625 78.3275 20.8254 88.7853 30.9105C90.7253 32.7691 93.7869 32.7082 95.636 30.7734C97.485 28.8387 97.4244 25.7461 95.4996 23.8875C83.3139 12.1113 66.7482 4.875 48.5 4.875C30.2519 4.875 13.6861 12.1113 1.48536 23.8723C-0.439485 25.7461 -0.50011 28.8234 1.34895 30.7734C3.19801 32.7234 6.27473 32.7844 8.19958 30.9105H8.21473ZM48.5 39C57.1088 39 64.9597 42.2145 70.9616 47.5312C72.9774 49.3137 76.0389 49.1156 77.8122 47.1047C79.5855 45.0938 79.3885 42.0012 77.3879 40.2188C69.6885 33.3938 59.5641 29.25 48.5 29.25C37.436 29.25 27.3116 33.3938 19.6274 40.2188C17.6116 42.0012 17.4297 45.0785 19.203 47.1047C20.9763 49.1309 24.0379 49.3137 26.0536 47.5312C32.0404 42.2145 39.8913 39 48.5152 39H48.5ZM58.2 63.375C58.2 60.7891 57.1781 58.3092 55.359 56.4807C53.5399 54.6522 51.0726 53.625 48.5 53.625C45.9274 53.625 43.4602 54.6522 41.6411 56.4807C39.822 58.3092 38.8 60.7891 38.8 63.375C38.8 65.9609 39.822 68.4408 41.6411 70.2693C43.4602 72.0978 45.9274 73.125 48.5 73.125C51.0726 73.125 53.5399 72.0978 55.359 70.2693C57.1781 68.4408 58.2 65.9609 58.2 63.375Z" fill="#A8B3C2"/>
<rect x="2.04447" y="0.547809" width="8.88517" height="72.7073" rx="4.44258" transform="matrix(0.864909 -0.501929 0.498073 0.867135 29.103 6.05014)" fill="#A8B3C2" stroke="#06090F" stroke-width="3"/>
</g>
<defs>
<clipPath id="clip0_380_31">
<rect width="97" height="78" fill="white"/>
</clipPath>
</defs>
</svg>
