<svg width="21" height="24" viewBox="0 0 21 24" fill="none" xmlns="http://www.w3.org/2000/svg">
<path d="M12 3.71876C12 2.89599 11.3297 2.23126 10.5 2.23126C9.67031 2.23126 9 2.89599 9 3.71876V10.4125H2.25C1.42031 10.4125 0.75 11.0772 0.75 11.9C0.75 12.7228 1.42031 13.3875 2.25 13.3875H9V20.0813C9 20.904 9.67031 21.5688 10.5 21.5688C11.3297 21.5688 12 20.904 12 20.0813V13.3875H18.75C19.5797 13.3875 20.25 12.7228 20.25 11.9C20.25 11.0772 19.5797 10.4125 18.75 10.4125H12V3.71876Z" fill="#A8B3C2"/>
</svg>
