<svg width="24" height="24" viewBox="0 0 24 24" fill="none" xmlns="http://www.w3.org/2000/svg">
<path d="M21.7268 10.5H22.1252C22.7486 10.5 23.2502 9.99841 23.2502 9.37497V3.37497C23.2502 2.92028 22.9783 2.50778 22.5564 2.33434C22.1346 2.16091 21.6518 2.25466 21.3283 2.57809L19.3783 4.52809C15.2721 0.473407 8.65801 0.48747 4.5752 4.57497C0.473633 8.67653 0.473633 15.3234 4.5752 19.425C8.67676 23.5265 15.3236 23.5265 19.4252 19.425C20.0111 18.839 20.0111 17.8875 19.4252 17.3015C18.8393 16.7156 17.8877 16.7156 17.3018 17.3015C14.3721 20.2312 9.62363 20.2312 6.69395 17.3015C3.76426 14.3718 3.76426 9.62341 6.69395 6.69372C9.60957 3.77809 14.3205 3.76403 17.2549 6.64685L15.3283 8.57809C15.0049 8.90153 14.9111 9.38434 15.0846 9.80622C15.258 10.2281 15.6705 10.5 16.1252 10.5H21.7268Z" fill="#A8B3C2"/>
</svg>
