<svg width="17" height="20" viewBox="0 0 17 20" fill="none" xmlns="http://www.w3.org/2000/svg">
<g clip-path="url(#clip0_248_82)">
<path d="M5.13036 0.691406L4.85714 1.25H1.21429C0.542634 1.25 0 1.80859 0 2.5C0 3.19141 0.542634 3.75 1.21429 3.75H15.7857C16.4574 3.75 17 3.19141 17 2.5C17 1.80859 16.4574 1.25 15.7857 1.25H12.1429L11.8696 0.691406C11.6647 0.265625 11.2435 0 10.7844 0H6.21563C5.75647 0 5.33527 0.265625 5.13036 0.691406ZM15.7857 5H1.21429L2.01875 18.2422C2.07946 19.2305 2.87634 20 3.83638 20H13.1636C14.1237 20 14.9205 19.2305 14.9812 18.2422L15.7857 5Z" fill="#A8B3C2"/>
</g>
<defs>
<clipPath id="clip0_248_82">
<rect width="17" height="20" fill="white"/>
</clipPath>
</defs>
</svg>
